PathFileType	4	(X/Y/Z)	Kaydara																																																																																																																									
DataRate	CameraRate	NumFrames	NumMarkers	Units	OrigDataRate	OrigDataStartFrame	OrigNumFrames																																																																																																																					
30	30	5	41	mm	30	74	192																																																																																																																					
Frame#	Time	PAIB_LFHD			PAIB_RFHD			PAIB_LBHD			PAIB_RBHD			PAIB_LFTShould			PAIB_RFTShould			PAIB_LRRShould			PAIB_RRRShould			PAIB_T10			PAIB_STRN			PAIB_TRUN			PAIB_LSHO			PAIB_LUPA			PAIB_LELB			PAIB_LFRM			PAIB_LWRA			PAIB_LWRB			PAIB_LFIN			PAIB_RSHO			PAIB_RUPA			PAIB_RELB			PAIB_RFRM			PAIB_RWRA			PAIB_RWRB			PAIB_RFIN			PAIB_LFWT			PAIB_RFWT			PAIB_LBWT			PAIB_RBWT			PAIB_LTHI			PAIB_LKNE			PAIB_LSHN			PAIB_LANK			PAIB_LHEE			PAIB_LTOE			PAIB_RTHI			PAIB_RKNE			PAIB_RSHN			PAIB_RANK			PAIB_RHEE			PAIB_RTOE		
		X1	Y1	Z1	X2	Y2	Z2	X3	Y3	Z3	X4	Y4	Z4	X5	Y5	Z5	X6	Y6	Z6	X7	Y7	Z7	X8	Y8	Z8	X9	Y9	Z9	X10	Y10	Z10	X11	Y11	Z11	X12	Y12	Z12	X13	Y13	Z13	X14	Y14	Z14	X15	Y15	Z15	X16	Y16	Z16	X17	Y17	Z17	X18	Y18	Z18	X19	Y19	Z19	X20	Y20	Z20	X21	Y21	Z21	X22	Y22	Z22	X23	Y23	Z23	X24	Y24	Z24	X25	Y25	Z25	X26	Y26	Z26	X27	Y27	Z27	X28	Y28	Z28	X29	Y29	Z29	X30	Y30	Z30	X31	Y31	Z31	X32	Y32	Z32	X33	Y33	Z33	X34	Y34	Z34	X35	Y35	Z35	X36	Y36	Z36	X37	Y37	Z37	X38	Y38	Z38	X39	Y39	Z39	X40	Y40	Z40	X41	Y41	Z41
																																																																																																																												
73	2.43	194.23424	1673.92227	-1816.31836	10.43846	1677.50641	-1819.07928	204.09533	1653.05054	-1945.28717	1.40879	1667.67792	-1934.52042	167.36053	1412.55402	-1845.14008	45.14383	1408.92593	-1838.05267	166.91372	1483.60458	-1986.88141	13.47892	1478.96133	-1967.9686	81.71187	1326.79489	-2067.71896	116.05547	1343.74069	-1806.53	117.3846	1240.9446	-1788.61847	292.64551	1425.76202	-1932.04468	345.35622	1202.32986	-1971.99677	356.13579	1123.31787	-2023.75595	381.62392	1006.16852	-1996.14456	337.06219	883.42186	-1914.3985	369.55036	874.0403	-1989.15375	387.48478	830.94986	-1929.22272	-85.78292	1413.2692	-1883.43277	-152.93615	1240.11658	-1911.90186	-175.28425	1120.45265	-1913.09402	-175.11084	987.96608	-1856.26587	-89.51658	908.47275	-1753.76419	-164.57994	881.71837	-1786.44348	-140.88318	858.36868	-1718.73734	208.11161	960.39612	-1850.87997	-27.07643	950.41382	-1852.04391	155.42471	1010.07439	-2065.01923	8.98718	1018.69347	-2063.04031	225.65155	717.87277	-1977.67807	266.4674	551.48937	-1757.01752	233.25026	344.21577	-1783.42758	227.30198	186.5868	-1918.72696	167.67742	187.13196	-1963.15857	224.94329	99.49183	-1769.40018	-37.76158	724.0435	-2083.68896	-29.77235	475.96214	-2029.608	40.95996	292.87518	-2038.74695	27.05271	111.27688	-2145.96115	89.3345	116.00134	-2198.19061	44.42704	77.98737	-1980.1619
74	2.463	193.10663	1670.73639	-1798.23456	9.24227	1674.54391	-1800.74707	202.72512	1649.8381	-1927.21405	0.26032	1664.62341	-1915.83054	166.25486	1408.94867	-1827.5676	44.0559	1405.28824	-1820.03357	165.11538	1481.18469	-1968.65311	11.82604	1476.42609	-1949.1922	79.60561	1325.09598	-2050.45807	115.12738	1339.86984	-1789.3692	116.36868	1236.97075	-1772.35779	291.02428	1422.84561	-1915.19882	343.04066	1200.08064	-1959.35791	353.68317	1122.38289	-2013.06458	379.54659	1004.72198	-1988.91907	335.60688	879.36485	-1910.02808	367.47688	872.0594	-1984.95132	385.90618	827.47032	-1926.68152	-86.96299	1410.23636	-1864.77798	-154.65118	1237.44255	-1893.12668	-177.2893	1117.79694	-1893.88458	-176.79066	985.66101	-1836.12411	-90.92175	907.09244	-1733.35037	-165.72487	879.9234	-1765.48996	-142.03309	857.29126	-1697.73773	207.06619	958.40988	-1836.04889	-27.89419	946.61163	-1837.24655	154.89424	1008.29781	-2050.2179	8.36505	1016.34369	-2048.27576	226.70191	715.87875	-1962.50961	262.58801	550.96104	-1738.73108	229.30677	341.0537	-1743.56766	223.9011	168.27284	-1857.92252	164.76238	163.73856	-1902.43729	218.77054	97.85941	-1699.14749	-38.00884	723.28369	-2072.71744	-30.07351	474.70196	-2023.85956	40.34612	291.51251	-2035.63141	26.80323	111.53341	-2145.68222	89.47251	116.53859	-2197.1347	44.11078	77.71403	-1980.30106
75	2.497	192.5704	1666.85501	-1778.5849	8.84283	1670.68878	-1780.69321	201.96238	1645.49149	-1907.48611	-0.64501	1660.56747	-1896.129	165.61195	1404.33884	-1808.0426	43.5021	1400.52277	-1800.38895	164.11234	1477.89307	-1948.52097	10.85702	1472.92053	-1928.62534	78.33534	1322.53281	-2031.41006	114.62697	1335.03326	-1770.43594	115.99506	1231.93108	-1754.45084	290.07139	1418.97888	-1895.84961	341.61335	1196.99623	-1944.12445	352.06173	1120.47859	-1999.41422	377.95689	1002.25487	-1978.06244	334.28799	874.84474	-1902.55493	366.08025	869.56177	-1977.68051	384.55421	823.48045	-1920.5545	-88.19409	1406.41083	-1846.1145	-155.99236	1233.78807	-1872.66708	-179.18871	1114.22318	-1873.24356	-178.28136	982.32742	-1814.71512	-92.01471	904.45229	-1711.99875	-166.72905	877.09206	-1743.51181	-142.51514	854.88319	-1675.71564	206.439	955.39383	-1819.39346	-28.2331	942.36588	-1820.32181	154.70873	1005.05264	-2033.50143	8.26273	1013.08273	-2031.49536	225.74646	713.36586	-1945.70679	259.65733	547.39162	-1722.45636	226.99163	338.0653	-1704.01138	220.44147	151.9634	-1793.73856	160.94635	142.31296	-1836.67587	216.47005	99.696	-1626.28601	-38.01929	722.1476	-2059.72229	-30.23009	473.11249	-2016.91376	39.95249	290.04429	-2031.77948	26.55855	111.91021	-2145.03021	89.5938	117.65798	-2196.06033	43.7607	77.59031	-1980.39017
76	2.53	192.66663	1662.43011	-1757.1669	8.90676	1666.35361	-1759.34784	202.04416	1640.57648	-1885.98969	-0.33688	1655.8049	-1874.52408	165.69349	1399.22455	-1786.74454	43.51535	1395.2153	-1779.11072	164.0045	1473.77563	-1926.68808	10.86246	1468.55392	-1906.58844	78.16685	1319.08112	-2010.58334	114.7125	1329.70551	-1749.63409	115.96322	1226.54236	-1734.3605	290.10876	1414.41238	-1874.38873	341.27415	1193.1134	-1926.26678	351.43166	1117.81357	-1983.24371	377.89894	999.59412	-1965.58868	333.66447	870.14236	-1891.23413	365.26024	866.30135	-1966.59302	383.75786	819.06296	-1910.51773	-87.80419	1401.29974	-1824.30389	-156.48897	1229.37851	-1850.95749	-180.31786	1109.93813	-1851.22131	-179.49526	978.27499	-1792.33566	-92.05152	900.66055	-1689.86282	-167.72373	873.22571	-1720.76401	-143.06625	851.19614	-1653.01239	206.6404	951.19415	-1800.84015	-28.00347	937.01088	-1801.43402	155.1118	1001.17516	-2014.7673	8.67572	1009.21036	-2012.58896	223.15563	709.49074	-1927.85065	256.72939	541.65668	-1706.53275	226.08601	336.58077	-1665.74875	217.15899	141.09108	-1730.3183	156.06906	126.13077	-1769.63745	217.83621	108.58482	-1557.07504	-37.36143	720.84908	-2045.20065	-30.10435	471.07594	-2008.38882	39.49819	288.0632	-2026.98761	26.95309	112.3872	-2144.15253	89.68654	119.27691	-2195.0296	43.36176	77.37882	-1980.25497
77	2.563	193.60533	1657.6062	-1734.08524	9.90632	1661.76102	-1736.39236	203.01636	1635.44479	-1862.87033	0.4773	1650.89676	-1851.89743	166.46481	1393.82767	-1763.53073	44.42342	1389.85733	-1756.16257	164.80328	1469.09973	-1903.18619	11.61504	1464.01947	-1883.23074	78.84536	1314.82925	-1987.77634	115.51308	1324.1246	-1726.90826	116.85495	1221.01753	-1712.4646	290.82485	1409.4429	-1851.53427	341.73161	1188.70827	-1906.07376	351.69426	1114.31244	-1964.1713	378.01674	995.75195	-1948.26324	334.0839	865.00053	-1875.8989	365.35412	862.56958	-1951.5979	383.88363	814.23965	-1896.31546	-86.65431	1396.44882	-1801.29349	-155.87831	1224.70772	-1828.05725	-180.31387	1105.43312	-1828.16025	-180.06935	973.86452	-1769.42566	-93.10667	895.55305	-1667.28516	-168.74197	868.65891	-1697.94266	-143.98225	846.5242	-1630.2153	208.2493	946.30707	-1779.49158	-27.08556	930.97214	-1780.50308	156.03948	996.86455	-1993.76663	9.47088	1004.93073	-1991.33728	220.39341	704.66591	-1908.25577	253.08859	535.54523	-1689.06158	224.909	336.71551	-1628.94073	215.11265	135.94607	-1671.69128	152.81124	116.91445	-1707.29126	222.03365	119.66222	-1495.80475	-35.77379	718.34251	-2028.19183	-29.45788	468.8192	-1998.12881	39.809	285.97443	-2021.58844	26.82979	113.64918	-2142.86301	89.69522	121.58778	-2193.5202	43.16771	77.17435	-1980.16342
